<?xml version="1.0" standalone="no"?>
<!DOCTYPE svg PUBLIC "-//W3C//DTD SVG 20010904//EN"
 "http://www.w3.org/TR/2001/REC-SVG-20010904/DTD/svg10.dtd">
<svg version="1.0" xmlns="http://www.w3.org/2000/svg"
 width="80px" height="80px" viewBox="0 0 2550.000000 2550.000000"
 preserveAspectRatio="xMidYMid meet">

<g transform="translate(0.000000,2550.000000) scale(0.100000,-0.100000)"
fill="#8B79B1" stroke="none">
<path d="M12275 25489 c-1618 -59 -3212 -426 -4700 -1084 -241 -107 -767 -369
-995 -496 -1381 -768 -2604 -1778 -3614 -2985 -1265 -1511 -2173 -3320 -2620
-5220 -178 -754 -278 -1452 -328 -2289 -26 -438 -13 -1209 28 -1720 198 -2465
1119 -4822 2653 -6789 545 -700 1183 -1359 1877 -1940 1511 -1264 3321 -2173
5220 -2620 754 -178 1452 -278 2289 -328 438 -26 1209 -13 1720 28 2165 174
4241 902 6060 2125 1670 1122 3056 2634 4044 4409 127 228 389 754 496 995
902 2040 1253 4267 1025 6495 -136 1327 -482 2626 -1025 3855 -107 241 -369
767 -496 995 -431 775 -973 1548 -1541 2197 -418 479 -957 1008 -1423 1399
-627 525 -1311 996 -2025 1393 -228 127 -754 389 -995 496 -1780 787 -3697
1155 -5650 1084z m899 -5293 c515 -119 972 -527 1134 -1011 87 -260 81 -547
-17 -784 -74 -177 -235 -405 -418 -588 -122 -123 -246 -229 -556 -477 -409
-328 -526 -443 -672 -661 -150 -225 -247 -455 -340 -805 -20 -74 -52 -196 -72
-270 -37 -138 -38 -159 -33 -384 l1 -49 52 49 c190 181 215 211 266 316 28 57
60 142 72 190 23 96 46 126 100 134 43 6 91 -22 115 -68 14 -26 18 -69 22
-215 l5 -182 136 117 c184 159 188 162 228 162 71 0 106 -46 117 -150 4 -36 9
-79 12 -97 l6 -31 43 29 c150 101 345 142 675 142 517 0 1171 -130 1930 -382
1041 -347 1947 -864 2690 -1535 140 -128 393 -383 488 -494 53 -62 62 -78 62
-112 0 -29 -7 -48 -27 -70 -35 -39 -36 -39 -598 -90 -1395 -125 -2569 -193
-4220 -242 -563 -17 -2959 -17 -3550 0 -1434 41 -2425 87 -3695 172 -849 57
-1045 74 -1075 94 -33 22 -59 80 -50 115 7 31 233 256 440 437 1110 972 2408
1619 3970 1979 370 85 842 170 885 160 37 -9 79 -54 86 -92 7 -39 -11 -89 -37
-103 -9 -6 -98 -23 -196 -40 -753 -128 -1486 -330 -2128 -585 -963 -384 -1794
-899 -2538 -1574 -70 -63 -125 -116 -124 -117 7 -8 1280 -92 1857 -124 1591
-87 2826 -121 4390 -121 1668 0 2974 41 4485 141 564 38 915 66 1653 132 72 6
132 14 132 18 0 12 -362 363 -470 456 -426 367 -855 653 -1370 913 -253 128
-366 177 -613 267 -1054 383 -2085 611 -2559 566 -198 -19 -310 -57 -393 -134
-66 -60 -87 -112 -93 -227 -5 -108 -20 -136 -77 -147 -40 -7 -98 16 -119 48
-10 15 -25 102 -42 243 -14 121 -28 222 -30 224 -2 3 -14 -5 -27 -16 -50 -45
-314 -270 -341 -291 -44 -34 -109 -30 -147 7 -34 34 -38 77 -14 155 8 27 15
56 15 64 0 8 -42 -30 -92 -83 -154 -163 -361 -319 -423 -319 -44 0 -77 18 -98
54 -15 25 -16 42 -7 152 54 639 159 1070 356 1458 172 341 390 598 751 889
225 180 328 273 525 472 190 192 285 310 348 430 189 362 167 800 -55 1139
-61 93 -186 224 -277 291 -352 261 -763 322 -1285 189 -311 -79 -545 -203
-721 -380 -145 -147 -175 -247 -98 -336 48 -55 119 -95 330 -184 215 -90 302
-137 364 -194 43 -40 82 -101 82 -130 0 -11 6 -13 30 -6 68 19 150 -37 150
-104 0 -17 -7 -58 -15 -91 -48 -181 -177 -300 -357 -325 -249 -36 -568 95
-781 320 -90 96 -136 166 -175 268 -24 62 -26 79 -26 227 -1 172 13 243 68
369 185 419 744 755 1401 845 108 15 496 6 579 -13z m2886 -8036 c191 -17 355
-64 506 -144 202 -108 335 -252 402 -438 24 -66 26 -86 26 -218 1 -156 -12
-225 -60 -326 -32 -67 -77 -92 -135 -75 -40 12 -75 49 -86 89 -4 15 5 56 22
106 50 146 46 292 -12 414 -36 78 -156 196 -248 244 -285 149 -729 167 -1026
43 -104 -44 -183 -98 -265 -179 -93 -93 -132 -163 -165 -295 -41 -162 -10
-272 109 -391 102 -102 237 -184 666 -405 215 -111 441 -232 501 -270 483
-299 737 -619 826 -1038 28 -132 30 -361 5 -482 -153 -714 -842 -1149 -1592
-1004 -262 50 -534 191 -681 352 -273 300 -293 713 -51 1070 64 95 146 113
202 46 40 -47 36 -98 -14 -173 -112 -172 -152 -355 -115 -515 47 -199 222
-377 469 -476 274 -111 526 -132 781 -65 98 26 266 105 349 164 210 150 382
411 432 657 24 121 15 313 -20 434 -91 309 -303 572 -636 787 -148 96 -276
166 -610 335 -526 265 -734 422 -823 619 -75 169 -53 396 60 617 127 245 430
442 773 501 160 27 244 30 410 16z m2905 -16 c50 -8 136 -30 192 -49 184 -61
303 -133 424 -255 163 -164 230 -395 185 -632 -29 -147 -78 -240 -135 -253
-41 -9 -97 18 -121 57 -26 42 -25 56 6 153 79 245 13 455 -191 600 -161 115
-366 169 -640 169 -246 0 -417 -42 -582 -144 -260 -160 -390 -470 -285 -682
75 -153 248 -271 792 -543 296 -148 381 -196 555 -310 322 -213 514 -419 639
-686 105 -224 143 -491 106 -734 -58 -385 -333 -753 -692 -928 -113 -55 -246
-100 -365 -123 -120 -24 -382 -24 -513 0 -181 33 -397 119 -543 218 -343 231
-474 637 -326 1007 36 90 112 221 150 257 37 35 94 41 137 15 69 -44 67 -110
-6 -226 -67 -106 -103 -214 -110 -330 -15 -275 158 -499 492 -635 326 -133
660 -130 954 10 112 53 183 102 271 185 304 286 413 680 291 1047 -81 241
-252 468 -484 642 -189 142 -329 223 -746 431 -511 256 -714 405 -808 593 -51
103 -66 173 -59 282 14 218 101 414 248 557 82 81 140 121 260 183 149 76 320
125 504 144 73 7 309 -4 400 -20z m-8425 -169 c494 -89 905 -369 1005 -687 63
-199 12 -401 -144 -570 -195 -211 -551 -378 -922 -432 -161 -24 -535 -18 -657
9 -17 4 2 -22 74 -102 142 -159 324 -389 664 -838 501 -661 669 -864 916
-1105 172 -168 257 -234 371 -292 109 -54 168 -61 223 -24 74 49 125 168 160
374 11 62 24 122 30 132 29 55 126 69 173 26 38 -35 42 -65 22 -184 -35 -218
-109 -395 -205 -492 -70 -71 -134 -102 -225 -108 -305 -20 -699 317 -1366
1168 -80 102 -257 334 -394 515 -293 389 -485 631 -583 736 -67 72 -176 158
-187 147 -3 -2 -8 -555 -11 -1229 -7 -1350 -3 -1267 -71 -1296 -70 -29 -145
13 -158 90 -9 57 14 3105 25 3292 6 99 9 252 6 339 -6 155 -4 172 27 259 6 18
33 42 81 72 177 110 400 185 636 214 110 14 398 6 510 -14z m3881 -123 c49
-55 33 -137 -34 -174 -16 -8 -210 -14 -680 -19 -363 -4 -660 -9 -662 -11 -2
-2 -5 -225 -7 -496 l-3 -492 100 0 c138 1 762 -20 804 -26 19 -3 47 -18 63
-34 23 -23 28 -37 28 -75 0 -40 -5 -52 -35 -82 l-35 -35 -118 6 c-64 3 -273 9
-464 12 l-348 6 0 -26 c0 -14 -9 -223 -20 -464 -31 -708 -60 -1585 -60 -1856
l0 -139 263 6 c144 4 486 10 759 14 l497 6 35 -35 c30 -30 36 -43 36 -78 0
-34 -6 -48 -34 -76 -32 -32 -51 -38 -102 -35 -11 1 -310 -5 -665 -13 -354 -8
-714 -13 -799 -11 l-155 4 -32 35 -33 36 0 192 c0 289 30 1201 71 2158 6 135
13 562 16 950 l6 705 31 31 c29 29 39 32 116 38 144 11 168 11 808 11 l624 0
29 -33z m-7905 -16 c847 -118 1499 -548 1830 -1208 132 -263 202 -619 175
-896 -43 -433 -220 -801 -542 -1123 -456 -456 -1117 -733 -1989 -834 -148 -17
-181 -14 -207 19 -10 12 -30 26 -45 29 -82 21 -109 150 -138 647 -20 333 -30
1334 -20 1940 10 622 20 860 47 1085 9 77 17 169 17 205 3 112 34 137 180 150
136 13 563 3 692 -14z m12379 -4486 c124 -60 207 -173 207 -281 0 -127 -60
-237 -212 -390 -227 -228 -586 -457 -857 -549 -48 -16 -90 -35 -94 -43 -15
-26 -28 -221 -20 -292 18 -156 76 -213 221 -214 209 -3 541 178 795 433 237
237 360 421 415 617 24 87 41 109 87 109 81 0 102 -45 72 -152 -87 -314 -411
-713 -764 -944 -241 -156 -478 -241 -654 -232 -144 7 -226 59 -286 183 -45 93
-57 164 -53 322 3 141 3 144 -15 121 -264 -333 -445 -466 -585 -429 -52 14
-97 61 -124 130 -18 47 -22 83 -25 216 -5 159 9 309 52 595 19 124 49 440 42
446 -10 10 -84 -16 -128 -45 -54 -36 -179 -161 -254 -256 -134 -166 -346 -511
-381 -620 -45 -136 -92 -190 -159 -182 -43 6 -95 52 -95 85 0 23 25 136 44
197 35 115 127 493 151 622 26 138 44 343 31 343 -40 0 -165 -113 -261 -235
-165 -211 -387 -613 -629 -1140 -145 -316 -188 -397 -232 -441 -52 -52 -96
-64 -148 -39 -57 27 -68 59 -67 194 2 130 44 402 136 876 96 490 132 645 156
671 42 45 119 21 135 -40 3 -13 -6 -77 -21 -142 -84 -372 -245 -1247 -232
-1260 1 -2 18 29 36 69 111 240 398 823 467 947 191 345 396 600 539 671 119
58 232 43 270 -37 42 -90 25 -317 -51 -654 -3 -14 20 12 54 61 184 269 378
453 532 504 69 23 199 18 229 -9 43 -39 53 -101 41 -258 -6 -79 -22 -222 -35
-318 -41 -296 -49 -389 -49 -570 -1 -176 6 -220 37 -220 51 0 268 207 403 385
137 181 295 422 387 589 107 195 240 367 374 481 83 71 209 139 283 155 74 15
167 3 235 -30z"/>
<path d="M10113 11770 c-186 -16 -347 -60 -505 -139 l-93 -47 3 -59 c2 -33 -4
-259 -14 -503 -9 -243 -15 -444 -13 -446 2 -3 67 -14 144 -26 481 -73 806 -67
1069 20 115 39 297 126 386 185 83 55 189 165 221 231 20 41 24 64 24 139 0
117 -25 174 -124 278 -195 205 -506 338 -859 367 -64 5 -124 9 -132 8 -8 0
-56 -4 -107 -8z"/>
<path d="M5914 11623 c-48 -5 -45 1 -63 -153 -36 -300 -55 -1360 -41 -2222 10
-606 20 -844 46 -1086 17 -162 20 -174 43 -168 9 3 50 8 91 11 131 12 429 65
594 107 945 237 1562 788 1693 1513 22 123 22 368 -1 500 -121 695 -735 1267
-1551 1444 -166 37 -316 52 -545 55 -124 2 -244 2 -266 -1z"/>
<path d="M18648 7196 c-63 -23 -127 -65 -199 -134 -80 -75 -184 -208 -210
-268 -9 -23 -33 -63 -52 -90 -60 -84 -198 -387 -183 -402 11 -10 189 72 304
141 263 156 527 387 590 516 52 106 36 184 -48 228 -50 27 -141 31 -202 9z"/>
</g>
</svg>
