<svg xmlns="http://www.w3.org/2000/svg"  viewBox="0 0 100 100" width="50px" height="50px"><path d="M 75.689453 10 A 2.0002 2.0002 0 0 0 74.375 10.494141 L 68.205078 15.896484 L 65.814453 14.701172 A 2.0002 2.0002 0 0 0 63.505859 15.074219 L 50.9375 27.642578 A 2.0002 2.0002 0 0 0 50.351562 29.056641 L 50.351562 30.921875 L 12.335938 68.9375 A 2.0002 2.0002 0 0 0 11.779297 70.015625 C 10.437666 77.902146 9.9479575 84.760199 9.9550781 91.001953 A 2.0002 2.0002 0 0 0 12.132812 92.992188 C 18.291489 92.443556 25.533468 89.429868 30.623047 87.482422 A 2.0002 2.0002 0 0 0 31.322266 87.027344 L 69.339844 49.011719 L 71.203125 49.011719 A 2.0002 2.0002 0 0 0 72.619141 48.425781 L 84.289062 36.753906 A 2.0002 2.0002 0 0 0 84.539062 34.230469 L 83.652344 32.902344 L 90.572266 25.982422 A 2.0002 2.0002 0 0 0 90.990234 23.765625 C 87.91773 16.756771 83.231293 12.225125 76.28125 10.087891 A 2.0002 2.0002 0 0 0 75.689453 10 z M 76.082031 14.318359 C 81.029669 16.080445 84.210465 19.089117 86.701172 24.197266 L 80.113281 30.783203 C 78.800409 29.029323 76.90435 27.004443 75.15625 25.220703 C 72.937036 22.956246 70.988281 21.142578 70.988281 21.142578 A 1.0001 1.0001 0 0 0 70.259766 20.865234 A 1.0001 1.0001 0 0 0 69.625 22.607422 C 69.625 22.607422 71.543526 24.391598 73.726562 26.619141 C 75.758023 28.692016 78.01637 31.18763 79.087891 32.804688 A 2.0002 2.0002 0 0 0 79.416016 33.755859 L 80.300781 35.085938 L 70.375 45.011719 L 68.511719 45.011719 A 2.0002 2.0002 0 0 0 67.097656 45.597656 L 28.804688 83.888672 C 26.283722 84.854838 23.35799 85.964153 20.4375 86.90625 C 18.810324 84.232112 15.618061 82.488241 14.382812 81.882812 C 14.63087 78.566114 15.017462 75.07723 15.644531 71.285156 L 53.724609 33.205078 C 54.030394 33.727339 54.3851 34.296068 54.814453 34.916016 C 55.197316 35.468835 55.903038 36.191657 56.398438 36.8125 L 46.1875 46.171875 A 1.0001 1.0001 0 0 0 46.15625 46.201172 L 30.013672 62.345703 L 19.255859 72.205078 A 1.0001496 1.0001496 0 1 0 20.607422 73.679688 L 31.380859 63.804688 A 1.0001 1.0001 0 0 0 31.412109 63.775391 L 47.556641 47.630859 L 57.681641 38.349609 C 59.052141 39.883179 60.655063 41.498131 62.712891 43.189453 L 54.419922 49.820312 A 1.0001 1.0001 0 0 0 54.337891 49.894531 L 38.191406 66.041016 L 24.738281 78.597656 A 1.0001 1.0001 0 1 0 26.101562 80.060547 L 39.568359 67.492188 A 1.0001 1.0001 0 0 0 39.59375 67.46875 L 55.712891 51.347656 L 64.339844 44.447266 C 64.643865 44.675776 64.913295 44.89962 65.236328 45.130859 A 1.0002523 1.0002523 0 0 0 66.400391 43.503906 C 61.296951 39.850665 58.238844 36.347299 56.458984 33.777344 C 55.18178 31.933175 54.591871 30.641764 54.351562 30.042969 L 54.351562 29.884766 L 56.25 27.986328 L 58.203125 30.558594 A 1.0002105 1.0002105 0 1 0 59.796875 29.349609 L 57.677734 26.558594 L 59.412109 24.824219 L 64.001953 28.759766 A 1.0007617 1.0007617 0 1 0 65.304688 27.240234 L 60.830078 23.40625 L 63.0625 21.173828 L 65.240234 24.041016 A 1.0001 1.0001 0 1 0 66.832031 22.832031 L 64.488281 19.748047 L 65.314453 18.921875 L 67.617188 20.074219 A 2.0002 2.0002 0 0 0 69.828125 19.791016 L 76.082031 14.318359 z M 75.693359 17.386719 C 75.198359 17.386719 74.794922 17.788203 74.794922 18.283203 C 74.794922 18.779203 75.198359 19.181641 75.693359 19.181641 C 76.189359 19.181641 76.591797 18.778203 76.591797 18.283203 C 76.591797 17.787203 76.188359 17.386719 75.693359 17.386719 z M 80.546875 19.101562 A 0.898 0.898 0 1 0 80.546875 20.896484 A 0.898 0.898 0 1 0 80.546875 19.101562 z M 77.673828 22.646484 C 77.178828 22.646484 76.776391 23.048922 76.775391 23.544922 C 76.775391 24.040922 77.178828 24.441406 77.673828 24.441406 C 78.169828 24.441406 78.572266 24.039922 78.572266 23.544922 C 78.572266 23.048922 78.168828 22.646484 77.673828 22.646484 z"/></svg>